<svg xmlns="http://www.w3.org/2000/svg" viewBox="0 0 48 48">
  <defs><linearGradient id="g" x1="0" y1="0" x2="1" y2="1"><stop offset="0" stop-color="#14b8a6"/><stop offset="1" stop-color="#0b6b62"/></linearGradient></defs>
  <rect width="48" height="48" rx="14" fill="url(#g)"/>
  <g fill="#fff">
    <ellipse cx="17" cy="15.5" rx="3.6" ry="4.6"/><ellipse cx="31" cy="15.5" rx="3.6" ry="4.6"/>
    <ellipse cx="10.5" cy="24" rx="3.2" ry="4"/><ellipse cx="37.5" cy="24" rx="3.2" ry="4"/>
    <path d="M24 22.5c-5.4 0-10.5 6.6-10.5 10.6 0 3 2.3 4.4 5 4.4 2.3 0 3.4-1.2 5.5-1.2s3.2 1.2 5.5 1.2c2.7 0 5-1.4 5-4.4 0-4-5.1-10.6-10.5-10.6z"/>
  </g>
  <path d="M36 6.5c1.6-1.7 4.6-.6 4.6 1.9 0 2.2-2.9 4-4.6 5.4-1.7-1.4-4.6-3.2-4.6-5.4 0-2.5 3-3.6 4.6-1.9z" fill="#ff7a59"/>
</svg>
